<?xml version="1.0" standalone="no"?>
<!DOCTYPE svg PUBLIC "-//W3C//DTD SVG 20010904//EN"
 "http://www.w3.org/TR/2001/REC-SVG-20010904/DTD/svg10.dtd">
<svg version="1.0" xmlns="http://www.w3.org/2000/svg"
 width="872.000000pt" height="872.000000pt" viewBox="0 0 872.000000 872.000000"
 preserveAspectRatio="xMidYMid meet">
<metadata>
Created by potrace 1.14, written by Peter Selinger 2001-2017
</metadata>
<g transform="translate(0.000000,872.000000) scale(0.100000,-0.100000)"
fill="#000000" stroke="none">
<path d="M5797 7614 c-1 -1 -27 -4 -57 -7 -30 -3 -66 -8 -80 -11 -14 -3 -34
-8 -45 -10 -52 -11 -172 -66 -240 -111 -70 -46 -149 -125 -201 -200 -36 -52
-75 -119 -79 -135 -1 -3 -7 -18 -14 -35 -7 -16 -14 -34 -15 -40 -2 -5 -8 -30
-15 -55 -7 -25 -15 -58 -17 -75 -2 -16 -6 -50 -9 -75 -3 -25 -8 -65 -11 -90
-3 -25 -8 -61 -11 -80 -2 -19 -6 -46 -8 -60 -9 -82 -17 -148 -20 -170 -2 -14
-6 -52 -10 -84 -3 -33 -8 -73 -10 -90 -3 -17 -7 -53 -11 -81 -11 -104 -13
-121 -20 -170 -3 -27 -8 -57 -9 -65 -2 -15 -16 -135 -20 -175 -2 -20 -11 -85
-21 -158 -3 -21 -7 -53 -9 -70 -14 -132 -24 -214 -30 -247 -3 -14 -7 -50 -10
-80 -3 -30 -8 -68 -10 -85 -2 -16 -6 -52 -10 -80 -3 -27 -8 -66 -10 -85 -3
-19 -7 -60 -10 -90 -3 -31 -7 -65 -9 -77 -3 -12 -7 -48 -11 -80 -3 -32 -8 -72
-11 -89 -3 -17 -6 -46 -8 -65 -17 -152 -22 -194 -26 -194 -1 0 -3 -20 -4 -45
-2 -25 -6 -63 -9 -85 -9 -61 -26 -193 -32 -255 -3 -30 -8 -73 -11 -95 -4 -22
-8 -56 -10 -75 -2 -19 -6 -53 -9 -75 -5 -39 -10 -80 -19 -160 -3 -22 -7 -62
-11 -90 -6 -48 -9 -72 -21 -161 -5 -40 -9 -71 -19 -164 -3 -30 -8 -66 -11 -80
-3 -14 -7 -50 -9 -80 -5 -53 -11 -106 -20 -160 -3 -14 -7 -45 -9 -70 -5 -43
-9 -78 -22 -185 -4 -27 -8 -61 -9 -75 -2 -14 -5 -43 -8 -65 -4 -22 -9 -65 -12
-95 -4 -30 -8 -66 -10 -80 -4 -30 -12 -93 -21 -175 -3 -33 -8 -69 -10 -80 -9
-47 -17 -144 -18 -200 0 -252 117 -487 321 -645 48 -37 190 -110 213 -110 9 0
20 -4 26 -10 27 -27 303 -45 384 -25 14 3 36 8 50 11 79 15 233 94 316 163
167 138 262 324 289 566 3 28 8 66 10 86 3 20 7 54 10 75 2 21 6 53 9 69 3 17
8 57 11 89 3 33 7 71 10 85 2 14 7 51 10 81 7 74 13 119 19 155 3 17 8 62 11
100 4 39 8 77 10 85 2 8 7 40 10 70 3 30 8 71 11 91 2 20 7 56 10 80 3 24 7
55 9 69 2 14 6 52 10 85 3 33 8 71 10 84 2 14 7 52 10 85 3 34 8 68 10 76 2 8
7 43 10 77 3 34 7 70 9 80 2 10 7 52 11 93 4 41 8 77 10 80 2 3 6 39 10 80 4
41 9 83 11 94 2 10 6 44 10 75 3 31 8 65 10 76 2 11 6 47 9 80 3 33 8 71 10
85 3 14 8 50 11 80 3 30 7 69 10 85 2 17 6 48 8 70 6 55 16 135 21 165 2 14 7
50 10 80 3 30 7 66 10 80 5 29 15 117 20 175 2 22 5 40 5 40 1 0 3 14 5 30 7
71 17 152 21 175 2 14 7 48 9 77 3 29 7 65 9 80 3 15 8 53 11 83 3 30 8 66 10
80 2 14 7 50 11 80 3 30 7 66 9 80 2 14 6 50 9 80 4 30 8 66 11 80 2 14 7 48
10 75 8 81 15 135 19 164 5 32 13 95 21 176 4 33 8 71 10 85 8 45 14 94 21
155 3 33 8 71 9 85 2 14 6 51 10 83 3 32 8 66 10 75 33 173 19 376 -36 507 -7
17 -12 33 -11 38 1 4 -3 7 -8 7 -5 0 -9 3 -8 8 3 13 -20 58 -36 71 -9 7 -16
19 -16 26 0 29 -140 171 -220 223 -70 45 -183 97 -235 107 -22 5 -42 9 -45 10
-33 10 -186 25 -193 19z"/>
<path d="M3285 6717 c-22 -5 -47 -12 -55 -15 -8 -3 -23 -7 -32 -8 -32 -7 -152
-66 -205 -101 -98 -65 -192 -169 -256 -284 -22 -41 -81 -190 -77 -197 1 -1 -1
-15 -4 -30 -5 -26 -13 -85 -21 -162 -3 -19 -7 -53 -9 -75 -3 -22 -8 -59 -11
-82 -3 -24 -7 -62 -10 -85 -3 -24 -8 -63 -10 -88 -3 -25 -8 -58 -10 -75 -2
-16 -7 -52 -10 -80 -4 -27 -8 -61 -11 -75 -2 -14 -6 -54 -9 -90 -4 -36 -8 -72
-10 -80 -2 -8 -7 -46 -11 -85 -3 -38 -8 -79 -10 -90 -3 -11 -7 -42 -9 -70 -3
-27 -7 -61 -10 -75 -2 -14 -7 -50 -10 -80 -3 -30 -7 -71 -10 -90 -2 -19 -7
-60 -10 -90 -3 -30 -8 -62 -10 -70 -2 -8 -7 -44 -10 -80 -4 -36 -9 -73 -10
-82 -2 -9 -6 -44 -10 -77 -3 -33 -8 -69 -10 -80 -2 -11 -7 -51 -10 -88 -4 -37
-8 -79 -11 -93 -2 -14 -7 -47 -10 -75 -3 -27 -7 -63 -9 -80 -2 -16 -9 -70 -15
-120 -6 -49 -13 -101 -15 -115 -2 -14 -7 -52 -10 -85 -13 -115 -14 -128 -19
-159 -3 -17 -8 -53 -11 -81 -3 -27 -8 -66 -11 -85 -3 -19 -7 -56 -9 -81 -2
-26 -6 -65 -10 -88 -7 -47 -11 -75 -19 -151 -4 -30 -9 -71 -12 -90 -25 -190
-19 -288 23 -430 30 -99 115 -241 188 -315 34 -34 124 -105 134 -105 6 0 11
-4 11 -9 0 -5 10 -13 23 -17 12 -4 24 -10 27 -14 9 -13 136 -59 206 -76 38 -8
104 -16 149 -18 73 -2 109 1 203 18 80 15 225 83 301 141 55 41 167 165 199
218 19 31 46 86 61 124 36 89 49 149 67 313 2 25 7 61 10 80 3 19 7 51 9 70 1
19 5 53 8 75 4 22 9 65 12 95 3 30 8 66 10 80 6 38 16 120 21 170 3 25 6 56 9
70 4 32 15 115 19 160 4 35 22 182 31 250 7 55 16 132 20 170 2 19 6 49 8 65
3 17 8 55 12 85 3 30 8 73 11 95 3 22 8 57 10 78 10 92 23 199 29 237 4 29 16
124 20 160 1 14 5 48 9 75 16 120 27 216 31 255 6 57 27 227 31 250 2 14 7 48
9 75 3 28 7 66 10 85 10 76 25 197 30 245 3 28 8 61 10 75 2 14 7 52 11 84 9
80 8 79 17 93 4 6 3 14 -3 18 -6 4 -8 11 -4 16 19 31 -5 237 -36 314 -4 11
-16 40 -26 65 -32 79 -104 183 -180 257 -40 39 -82 74 -93 78 -12 3 -21 9 -21
13 0 15 -175 95 -235 108 -5 1 -23 5 -40 10 -45 11 -274 12 -320 1z"/>
<path d="M958 6049 c-309 -49 -565 -279 -648 -582 -11 -41 -22 -99 -25 -128
-2 -30 -6 -63 -8 -74 -3 -11 -8 -47 -11 -80 -4 -33 -9 -80 -13 -105 -9 -71
-11 -91 -18 -155 -3 -33 -8 -71 -10 -85 -2 -14 -9 -65 -15 -115 -6 -49 -13
-101 -15 -115 -2 -14 -6 -50 -9 -80 -4 -30 -8 -69 -10 -85 -7 -48 -17 -127
-22 -170 -9 -81 -12 -101 -19 -155 -4 -30 -9 -71 -11 -90 -2 -19 -6 -48 -8
-65 -2 -16 -7 -59 -11 -95 -4 -36 -9 -72 -10 -80 -2 -8 -6 -40 -9 -71 -4 -31
-8 -65 -10 -75 -2 -11 -7 -55 -11 -99 -3 -43 -9 -83 -11 -87 -7 -10 -6 -186 1
-223 32 -175 117 -342 226 -445 63 -59 114 -100 126 -100 7 0 13 -4 13 -9 0
-10 121 -71 170 -86 35 -10 92 -25 120 -30 45 -9 216 -10 255 -3 17 3 48 9 70
13 54 11 164 56 233 97 60 35 219 185 243 229 58 108 71 135 89 181 21 58 34
119 45 208 4 34 12 97 20 150 2 14 6 52 10 85 3 33 8 76 11 95 11 82 14 108
20 165 3 33 8 69 10 80 2 11 6 43 9 70 6 54 20 171 31 250 3 28 7 61 9 75 2
25 14 115 20 160 2 14 7 54 10 90 4 36 9 72 10 81 5 25 25 194 30 250 2 20 5
50 9 65 3 16 8 56 11 89 3 33 8 74 11 91 27 173 15 325 -36 454 -12 30 -26 60
-31 66 -5 6 -6 14 -2 17 3 4 1 7 -5 7 -7 0 -12 9 -12 20 0 11 -4 20 -8 20 -5
0 -18 17 -30 38 -81 138 -285 281 -467 327 -75 19 -241 27 -317 14z"/>
<path d="M7848 5935 c-2 -2 -23 -5 -48 -8 -54 -7 -93 -16 -130 -29 -8 -3 -35
-13 -60 -22 -87 -31 -175 -91 -265 -181 -49 -50 -97 -104 -105 -120 -8 -17
-18 -32 -21 -35 -6 -6 -38 -74 -62 -135 -17 -42 -49 -179 -45 -192 1 -5 -4
-53 -11 -108 -16 -118 -18 -134 -26 -200 -3 -27 -12 -104 -21 -170 -8 -66 -17
-140 -20 -165 -4 -41 -8 -74 -20 -155 -2 -16 -6 -55 -9 -85 -2 -30 -7 -66 -9
-80 -3 -14 -7 -47 -10 -75 -7 -59 -15 -129 -22 -170 -2 -16 -6 -55 -9 -85 -3
-30 -7 -65 -9 -77 -3 -12 -7 -46 -11 -75 -3 -29 -8 -69 -10 -88 -3 -19 -7 -58
-10 -85 -3 -28 -8 -66 -11 -85 -3 -19 -8 -78 -11 -130 -4 -83 -1 -124 22 -230
9 -44 40 -125 50 -132 5 -4 7 -8 2 -8 -4 0 3 -17 16 -37 12 -21 29 -51 37 -68
8 -16 56 -70 105 -120 100 -100 191 -158 315 -199 248 -82 523 -37 730 120
176 134 292 337 315 554 3 25 12 97 20 160 8 63 17 138 20 165 3 28 8 61 10
75 2 14 6 50 10 80 3 30 9 73 12 95 3 22 6 56 8 75 2 19 6 49 8 65 5 27 15
109 23 190 2 17 5 44 8 60 11 67 27 212 29 262 1 18 4 33 7 33 3 0 5 10 6 23
1 36 23 226 30 267 3 14 7 41 9 60 2 20 7 65 12 100 15 128 9 289 -16 375 -20
72 -66 182 -82 195 -3 3 -13 19 -22 36 -32 62 -158 184 -245 237 -47 29 -88
52 -91 53 -3 0 -18 6 -33 12 -36 15 -124 40 -168 48 -35 6 -187 13 -192 9z"/>
</g>
</svg>
